<svg xmlns="http://www.w3.org/2000/svg" width="87.931" height="101.261" viewBox="0 0 87.931 101.261">
  <g id="increase" transform="translate(-33.7)">
    <path id="Path_71" data-name="Path 71" d="M148.086,54.074a27.037,27.037,0,1,0-27.037-27.037A27.068,27.068,0,0,0,148.086,54.074Zm0-51.1a24.065,24.065,0,1,1-24.065,24.065A24.092,24.092,0,0,1,148.086,2.972Z" transform="translate(-70.074)" fill="#164cff"/>
    <path id="Path_72" data-name="Path 72" d="M178.442,76.947a19.553,19.553,0,1,0-13.134-34.04,1.486,1.486,0,1,0,2,2.2,16.543,16.543,0,1,1-3.444,4.382,1.486,1.486,0,1,0-2.612-1.419,19.559,19.559,0,0,0,17.192,28.875Z" transform="translate(-100.43 -30.356)" fill="#164cff"/>
    <path id="Path_74" data-name="Path 74" d="M78.867,346.1a1.486,1.486,0,0,0-2.165,0l-10.1,10.733a1.486,1.486,0,0,0,1.083,2.5h2.918v5.4a1.486,1.486,0,0,0,2.973,0v-6.883a1.486,1.486,0,0,0-1.486-1.486h-.966l6.657-7.078,6.657,7.078h-.966a1.486,1.486,0,0,0-1.486,1.486V375.56H73.578v-4.884a1.486,1.486,0,0,0-2.973,0v6.371a1.486,1.486,0,0,0,1.486,1.486H83.475a1.486,1.486,0,0,0,1.486-1.486V359.333h2.918a1.486,1.486,0,0,0,1.083-2.5Z" transform="translate(-26.074 -277.272)" fill="#164cff"/>
    <path id="Path_75" data-name="Path 75" d="M211.858,294.4a1.486,1.486,0,0,0-2.165,0l-10.1,10.733a1.486,1.486,0,0,0,1.083,2.5H203.6v27.937a1.486,1.486,0,0,0,1.486,1.486h11.383a1.486,1.486,0,0,0,1.486-1.486V307.633h2.918a1.486,1.486,0,0,0,1.082-2.5Zm4.609,10.265a1.486,1.486,0,0,0-1.486,1.486v27.937H206.57V306.147a1.486,1.486,0,0,0-1.486-1.486h-.966l6.657-7.078,6.657,7.078h-.966Z" transform="translate(-132.763 -235.797)" fill="#164cff"/>
    <path id="Path_76" data-name="Path 76" d="M344.849,246.562a1.486,1.486,0,0,0-2.165,0l-10.1,10.733a1.486,1.486,0,0,0,1.082,2.5h2.918v9.07a1.486,1.486,0,1,0,2.973,0V258.313a1.486,1.486,0,0,0-1.486-1.486h-.966l6.657-7.078,6.657,7.078h-.966a1.486,1.486,0,0,0-1.486,1.486v37.4h-8.411v-20.9a1.486,1.486,0,0,0-2.973,0V297.2a1.486,1.486,0,0,0,1.486,1.486h11.383a1.486,1.486,0,0,0,1.486-1.486V259.8h2.918a1.486,1.486,0,0,0,1.082-2.5Z" transform="translate(-239.452 -197.423)" fill="#164cff"/>
    <path id="Path_77" data-name="Path 77" d="M45.389,133.367a1.486,1.486,0,0,0-1.486-1.486H35.186a1.486,1.486,0,1,0,0,2.973H43.9A1.486,1.486,0,0,0,45.389,133.367Z" transform="translate(0 -105.798)" fill="#164cff"/>
    <path id="Path_78" data-name="Path 78" d="M78.6,197.953l-3.1,1.215a1.486,1.486,0,1,0,1.084,2.767l3.1-1.215a1.486,1.486,0,1,0-1.084-2.767Z" transform="translate(-32.779 -158.72)" fill="#164cff"/>
    <path id="Path_79" data-name="Path 79" d="M75.5,62.636l3.1,1.215a1.486,1.486,0,1,0,1.084-2.767l-3.1-1.215A1.486,1.486,0,1,0,75.5,62.636Z" transform="translate(-32.779 -47.946)" fill="#164cff"/>
    <path id="Path_80" data-name="Path 80" d="M429.4,131.881h-8.717a1.486,1.486,0,1,0,0,2.973H429.4a1.486,1.486,0,1,0,0-2.973Z" transform="translate(-309.254 -105.798)" fill="#164cff"/>
    <path id="Path_81" data-name="Path 81" d="M407.675,200.722l3.1,1.215a1.486,1.486,0,1,0,1.085-2.767l-3.1-1.215a1.486,1.486,0,0,0-1.085,2.767Z" transform="translate(-299.255 -158.722)" fill="#164cff"/>
    <path id="Path_82" data-name="Path 82" d="M408.218,63.954a1.482,1.482,0,0,0,.542-.1l3.1-1.215a1.486,1.486,0,0,0-1.085-2.768l-3.1,1.215a1.487,1.487,0,0,0,.543,2.87Z" transform="translate(-299.255 -47.946)" fill="#164cff"/>
    <text id="N" transform="translate(77.7 33)" fill="#164cff" font-size="20" font-family="Montserrat-Regular, Montserrat"><tspan x="-7.92" y="0">N</tspan></text>
    <line id="Line_7" data-name="Line 7" x2="2" transform="translate(70.2 24.5)" fill="none" stroke="#7f9bf8" stroke-width="1"/>
    <line id="Line_8" data-name="Line 8" x2="2" transform="translate(70.2 27.5)" fill="none" stroke="#7f9bf8" stroke-width="1"/>
    <line id="Line_9" data-name="Line 9" x2="2" transform="translate(83.2 24.5)" fill="none" stroke="#7f9bf8" stroke-width="1"/>
    <line id="Line_10" data-name="Line 10" x2="2" transform="translate(83.2 27.5)" fill="none" stroke="#7f9bf8" stroke-width="1"/>
  </g>
</svg>
