<svg xmlns="http://www.w3.org/2000/svg" width="93.664" height="62.443" viewBox="0 0 93.664 62.443">
  <g id="laptop_1_" data-name="laptop (1)" transform="translate(0 -85.333)">
    <g id="Group_56" data-name="Group 56" transform="translate(0 85.333)">
      <path id="Path_83" data-name="Path 83" d="M91.713,136.068H85.859V93.138a7.813,7.813,0,0,0-7.805-7.805H15.611a7.813,7.813,0,0,0-7.805,7.805v42.929H1.951A1.95,1.95,0,0,0,0,138.019v1.951a7.813,7.813,0,0,0,7.805,7.805H85.859a7.813,7.813,0,0,0,7.805-7.805v-1.951A1.95,1.95,0,0,0,91.713,136.068Zm-80-42.929a3.908,3.908,0,0,1,3.9-3.9H78.053a3.908,3.908,0,0,1,3.9,3.9v42.929H11.708Zm74.151,50.735H7.805a3.908,3.908,0,0,1-3.9-3.9H36.267l1.38,1.38a1.95,1.95,0,0,0,1.38.572H54.637a1.95,1.95,0,0,0,1.38-.572l1.38-1.38H89.761A3.908,3.908,0,0,1,85.859,143.873Z" transform="translate(0 -85.333)" fill="#164cff"/>
    </g>
  </g>
</svg>
