<svg xmlns="http://www.w3.org/2000/svg" width="130.016" height="102.017" viewBox="0 0 130.016 102.017">
  <g id="Group_59" data-name="Group 59" transform="translate(-436.395 -7409.125)">
    <g id="Icon_feather-settings" data-name="Icon feather-settings" transform="matrix(0.966, -0.259, 0.259, 0.966, 436.395, 7428.021)">
      <path id="Path_91" data-name="Path 91" d="M32.594,23.047A9.547,9.547,0,1,1,23.047,13.5,9.547,9.547,0,0,1,32.594,23.047Z" transform="translate(13.458 13.458)" fill="none" stroke="#164cff" stroke-linecap="round" stroke-linejoin="round" stroke-width="3"/>
      <path id="Path_92" data-name="Path 92" d="M60.054,46.052a5.251,5.251,0,0,0,1.05,5.792l.191.191a6.368,6.368,0,1,1-9.006,9.006l-.191-.191A5.293,5.293,0,0,0,43.124,64.6v.541a6.365,6.365,0,1,1-12.729,0v-.286a5.251,5.251,0,0,0-3.437-4.805,5.251,5.251,0,0,0-5.792,1.05l-.191.191a6.368,6.368,0,1,1-9.006-9.006l.191-.191a5.293,5.293,0,0,0-3.755-8.974H7.865a6.365,6.365,0,1,1,0-12.729h.286a5.251,5.251,0,0,0,4.805-3.437,5.251,5.251,0,0,0-1.05-5.792l-.191-.191a6.368,6.368,0,1,1,9.006-9.006l.191.191a5.251,5.251,0,0,0,5.792,1.05h.255A5.251,5.251,0,0,0,30.14,8.406V7.865a6.365,6.365,0,0,1,12.729,0v.286a5.293,5.293,0,0,0,8.974,3.755l.191-.191a6.368,6.368,0,1,1,9.006,9.006l-.191.191A5.251,5.251,0,0,0,59.8,26.7v.255A5.251,5.251,0,0,0,64.6,30.14h.541a6.365,6.365,0,1,1,0,12.729h-.286a5.251,5.251,0,0,0-4.805,3.182Z" transform="translate(0 0)" fill="none" stroke="#164cff" stroke-linecap="round" stroke-linejoin="round" stroke-width="3"/>
    </g>
    <g id="Icon_feather-settings-2" data-name="Icon feather-settings" transform="translate(510.6 7455.329)">
      <path id="Path_91-2" data-name="Path 91" d="M27.9,20.7a7.2,7.2,0,1,1-7.2-7.2A7.2,7.2,0,0,1,27.9,20.7Z" transform="translate(7.204 7.204)" fill="none" stroke="#164cff" stroke-linecap="round" stroke-linejoin="round" stroke-width="3"/>
      <path id="Path_92-2" data-name="Path 92" d="M45.67,35.108a3.961,3.961,0,0,0,.792,4.369l.144.144a4.8,4.8,0,1,1-6.794,6.794l-.144-.144A3.993,3.993,0,0,0,32.9,49.1v.408a4.8,4.8,0,0,1-9.6,0v-.216A3.961,3.961,0,0,0,20.7,45.67a3.961,3.961,0,0,0-4.369.792l-.144.144A4.8,4.8,0,1,1,9.4,39.813l.144-.144A3.993,3.993,0,0,0,6.709,32.9H6.3a4.8,4.8,0,1,1,0-9.6h.216A3.961,3.961,0,0,0,10.142,20.7a3.961,3.961,0,0,0-.792-4.369l-.144-.144A4.8,4.8,0,1,1,16,9.4l.144.144a3.961,3.961,0,0,0,4.369.792H20.7a3.961,3.961,0,0,0,2.4-3.625V6.3a4.8,4.8,0,0,1,9.6,0v.216a3.993,3.993,0,0,0,6.77,2.833l.144-.144A4.8,4.8,0,1,1,46.414,16l-.144.144a3.961,3.961,0,0,0-.792,4.369V20.7A3.961,3.961,0,0,0,49.1,23.1h.408a4.8,4.8,0,0,1,0,9.6h-.216a3.961,3.961,0,0,0-3.625,2.4Z" transform="translate(0 0)" fill="none" stroke="#164cff" stroke-linecap="round" stroke-linejoin="round" stroke-width="3"/>
    </g>
  </g>
</svg>
