<svg xmlns="http://www.w3.org/2000/svg" width="86.709" height="53.658" viewBox="0 0 86.709 53.658">
  <g id="Group_64" data-name="Group 64" transform="translate(-1101 -7837.044)">
    <path id="Icon_ionic-ios-return-left" data-name="Icon ionic-ios-return-left" d="M5.477,27.57l8.957-8.927a2.091,2.091,0,0,1,1.488-.616,2.055,2.055,0,0,1,1.488.616,2.1,2.1,0,0,1,0,2.976l-.015.015L11.218,27.66H50.487a7.474,7.474,0,0,0,5.305-2.209A7.4,7.4,0,0,0,58,20.146V12.932a2.1,2.1,0,1,1,4.208,0v7.214A11.75,11.75,0,0,1,50.487,31.868H11.158l5.951,6.041a2.091,2.091,0,0,1,.616,1.488,2.055,2.055,0,0,1-.616,1.488l-.015.015a2.173,2.173,0,0,1-1.473.586,2.007,2.007,0,0,1-1.488-.616L5.477,32.244A3.32,3.32,0,0,1,4.5,29.884,3.217,3.217,0,0,1,5.477,27.57Z" transform="translate(1096.5 7826.216)" fill="#164cff"/>
    <path id="Icon_ionic-ios-return-left-2" data-name="Icon ionic-ios-return-left" d="M61.232,24.744l-8.957,8.927a2.091,2.091,0,0,1-1.488.616,2.055,2.055,0,0,1-1.488-.616,2.1,2.1,0,0,1,0-2.976l.015-.015,6.177-6.026H16.222a7.474,7.474,0,0,0-5.305,2.209,7.4,7.4,0,0,0-2.209,5.3v7.214a2.1,2.1,0,0,1-4.208,0V32.168A11.75,11.75,0,0,1,16.222,20.446H55.551L49.6,14.4a2.091,2.091,0,0,1-.616-1.488,2.055,2.055,0,0,1,.616-1.488l.015-.015a2.173,2.173,0,0,1,1.473-.586,2.007,2.007,0,0,1,1.488.616l8.656,8.626a3.32,3.32,0,0,1,.977,2.359A3.217,3.217,0,0,1,61.232,24.744Z" transform="translate(1125.5 7849.216)" fill="#164cff"/>
  </g>
</svg>
