<svg id="transparency" xmlns="http://www.w3.org/2000/svg" width="69.256" height="69.261" viewBox="0 0 69.256 69.261">
  <path id="Path_68" data-name="Path 68" d="M126.333,29.173a15.29,15.29,0,0,0-12.316,6.151,1.248,1.248,0,0,1-2-1.5,17.828,17.828,0,1,1-2.639,4.99,1.248,1.248,0,0,1,2.363.8,15.407,15.407,0,1,0,14.589-10.443Zm0,0" transform="translate(-101.818 -20.057)" fill="#164cff"/>
  <path id="Path_69" data-name="Path 69" d="M24.8,0A24.525,24.525,0,0,1,46.16,36.566a1.248,1.248,0,1,1-2.173-1.227A22.046,22.046,0,1,0,40.371,40.1a1.246,1.246,0,0,1,1.763,0L45.5,43.46a4.96,4.96,0,0,1,6.048.735L68.09,60.734a4.966,4.966,0,0,1,0,7.016l-.059.06a4.967,4.967,0,0,1-7.017,0L44.471,51.269a4.945,4.945,0,0,1-.723-6.036l-2.514-2.515A24.518,24.518,0,1,1,24.8,0Zm21.436,49.5L62.778,66.046a2.471,2.471,0,0,0,3.488,0l.059-.059a2.466,2.466,0,0,0,0-3.487L49.785,45.957a2.45,2.45,0,0,0-1.745-.722,2.505,2.505,0,0,0-1.8.783,2.467,2.467,0,0,0,0,3.486Zm0,0" transform="translate(-0.285 0)" fill="#164cff"/>
</svg>
